<!DOCTYPE svg PUBLIC "-//W3C//DTD SVG 1.1//EN" "http://www.w3.org/Graphics/SVG/1.1/DTD/svg11.dtd">
<!-- Uploaded to: SVG Repo, www.svgrepo.com, Transformed by: SVG Repo Mixer Tools -->
<svg height="800px" width="800px" version="1.1" id="_x32_" xmlns="http://www.w3.org/2000/svg" xmlns:xlink="http://www.w3.org/1999/xlink" viewBox="0 0 512 512" xml:space="preserve" fill="#0097ff" stroke="#0097ff">
<g id="SVGRepo_bgCarrier" stroke-width="0"/>
<g id="SVGRepo_tracerCarrier" stroke-linecap="round" stroke-linejoin="round"/>
<g id="SVGRepo_iconCarrier"> <style type="text/css"> .st0{fill:#0097ff;} </style> <g> <path class="st0" d="M338.161,397.789c-14.434,16.53-39.466,33.402-82.153,33.34c-42.703,0.062-67.727-16.81-82.152-33.34 c-2.159,1.786-5.707,4.728-10.272,8.548c-7.756,6.468-18.37,15.334-29.791,24.93c-16.747,14.069-35.194,29.69-48.945,41.655 c0.155,0.264,0.279,0.59,0.435,0.846c1.933,2.811,4.487,4.899,7.679,7.058c5.598,3.711,13.338,7.322,23.268,10.878 c29.682,10.59,78.853,20.288,139.779,20.295c49.489,0,91.26-6.429,121.09-14.503c14.907-4.037,26.833-8.456,35.435-12.881 c4.309-2.244,7.796-4.425,10.551-6.84c1.398-1.227,2.601-2.5,3.618-4.006c0.171-0.256,0.295-0.582,0.451-0.854 c-23.114-20.101-59.622-50.653-78.737-66.578C343.851,402.518,340.303,399.575,338.161,397.789z M212.062,499.399 c0,0-36.693-1.025-49.931-10.202l30.568-60.095c0,0,15.287,12.213,31.592,14.262L212.062,499.399z"/> <path class="st0" d="M145.423,350.738c-64.186,23.58-136.02,73.364-136.02,73.364s15.272,24.884,56.538,53.704 c25.987-23.58,104.436-88.643,104.436-88.643L145.423,350.738z"/> <path class="st0" d="M366.593,350.738l-24.977,38.425c0,0,78.456,65.064,104.436,88.643c41.274-28.82,56.546-53.704,56.546-53.704 S430.779,374.318,366.593,350.738z"/> <path class="st0" d="M127.503,96.012c14.402,16.693,29.372,29.744,43.782,39.986c-10.497,18.509-18.223,37.539-21.926,52.943 l-21.732-10.792l-11.623,27.446l23.494,20.761l-37.462,97.79c0,0-1.002,3.02,0.341,6.289c-0.745,3.004-0.854,5.901,0.73,8.199 c3.478,4.969,14.628,6.467,20.668,6.467h43.255l3.827-18.448c7.089-2.29,17.074-3.773,28.332-0.512 c1.103,1.289,2.19,2.531,3.214,3.664c0,10.862,0,19.1,0,25.707c0.015,0.8-0.318,1.98-1.576,3.65 c-1.848,2.476-5.668,5.489-10.218,8.035c-4.534,2.586-9.736,4.814-14.309,6.414c-1.833,0.668-4.185,1.351-6.716,2.042 l10.831,16.685l-1.833,1.53c13.518,15.412,36.453,31.088,77.424,31.142c40.971-0.054,63.899-15.73,77.408-31.142l-1.832-1.53 l10.762-16.584c-2.5-0.73-4.729-1.413-6.522-2.08c-6.863-2.562-14.107-5.87-19.154-9.418c-2.546-1.762-4.472-3.571-5.614-5.109 c-1.141-1.592-1.452-2.671-1.452-3.634c0-6.607,0-14.845,0-25.707c1.025-1.134,2.12-2.376,3.23-3.68 c11.259-3.246,21.212-1.755,28.278,0.528l3.835,18.448H388.2c6.057,0,17.198-1.498,20.676-6.467 c1.763-2.562,1.46-5.855,0.482-9.201c0.8-2.856,0-5.287,0-5.287l-37.882-98.853l24.504-19.698l-11.624-27.446l-21.747,10.792 c-3.703-15.404-11.421-34.434-21.903-52.943c14.387-10.241,29.372-23.293,43.782-39.986c40.917-47.385,58.597-86.33,58.705-86.587 l2.997-6.599L386.841,8.4l-0.504,3.23v0.015c-0.07,0.466-1.025,5.738-3.082,10.529c-1.018,2.384-2.346,4.596-3.696,6.001 c-0.683,0.692-1.35,1.196-1.98,1.522c-0.637,0.303-1.204,0.435-1.926,0.443c-0.551,0-1.235-0.093-2.08-0.404 c-2.555-0.947-3.782-2.058-4.511-3.136c-0.753-1.087-1.087-2.368-1.087-3.991c-0.016-2.624,1.064-5.9,2.252-8.408 c0.59-1.25,1.188-2.306,1.63-3.052c0.225-0.372,0.396-0.652,0.52-0.831l0.124-0.201l0.024-0.039l4.029-5.824L336.064,0 l-0.217,4.441c-0.086,1.972-0.124,4.014-0.124,6.11c0.015,5.024,0.194,10.428,0.194,16.026c0,7.943-0.373,16.281-2.05,24.698 c-2.578,12.617-7.982,25.272-19.838,37.113c-2.926,2.904-6.258,5.784-10.054,8.572c-14.791-13.664-31.196-22.71-47.983-22.71 c-16.786,0-33.192,9.022-47.982,22.702c-14.006-10.349-21.787-21.639-26.235-33.075c-4.884-12.555-5.723-25.404-5.699-37.307 c-0.024-5.59,0.178-10.971,0.178-16.01c0-2.104-0.038-4.146-0.132-6.118L175.905,0l-40.482,4.262l4.022,5.816 c0.062,0.085,1.281,1.895,2.422,4.371c1.15,2.461,2.159,5.629,2.144,8.16c-0.016,1.623-0.342,2.888-1.087,3.991 c-0.746,1.079-1.972,2.19-4.527,3.136c-0.846,0.311-1.514,0.404-2.08,0.404c-0.73-0.008-1.328-0.163-1.972-0.497 c-1.141-0.544-2.422-1.817-3.594-3.618c-1.747-2.678-3.106-6.374-3.928-9.316c-0.428-1.484-0.723-2.796-0.917-3.704 c-0.093-0.466-0.171-0.831-0.194-1.056l-0.062-0.264l-0.008-0.054l-0.512-3.23L65.793,2.826l2.982,6.599 C68.891,9.682,86.586,48.627,127.503,96.012z M228.872,414.311c0,0-19.86-3.555-24.954-11.693l15.288-24.457 c0,0,12.221,9.162,20.373,10.171L228.872,414.311z M325.35,270.705l-0.909,0.311l-0.676,3.851 c-4.301,24.085-16.716,37.664-25.893,47.858l-1.732,1.933v2.585c0,12.222,0,21.127,0,28.27c-0.007,2.648,0.652,5.093,1.67,7.369 c-6.685,8.206-20.202,20.365-41.802,20.365c-21.647,0-35.172-12.198-41.849-20.412c1.025-2.228,1.701-4.658,1.701-7.322 c0-7.143,0-16.048,0-28.27v-2.585l-1.732-1.933c-9.161-10.194-21.584-23.774-25.893-47.858l-0.676-3.851l-0.932-0.334 c-0.637-4.014-1.118-7.873-1.568-11.546l9.899-47.33l55.933,1.289l5.101,0.777l5.094-0.777l55.948-1.289l9.884,47.33 C326.475,262.817,325.986,266.668,325.35,270.705z M194.229,190.183c7.64-6.126,58.588-7.656,58.588-7.656v13.262 C252.817,195.789,229.385,199.338,194.229,190.183z M118.015,16.157c0.536,2.259,1.406,5.443,2.772,8.75 c1.266,3.044,2.927,6.196,5.365,8.844c1.211,1.304,2.656,2.492,4.363,3.377c1.708,0.87,3.711,1.398,5.8,1.398 c1.63,0,3.299-0.311,4.961-0.916c3.835-1.383,6.762-3.587,8.603-6.328c1.855-2.748,2.516-5.847,2.516-8.673 c-0.031-4.394-1.437-8.322-2.819-11.398l18.269-1.941c0,0.435,0.023,0.847,0.023,1.289c0,4.829-0.186,10.233-0.186,16.01 c0,8.183,0.373,17.136,2.228,26.367c2.756,13.82,8.99,28.324,22.12,41.398c13.122,13.068,32.959,24.69,62.765,33.526l1.196,0.365 l1.188-0.365c19.876-5.901,35.296-13.012,47.284-20.994c17.974-11.942,28.13-25.901,33.573-39.954 c5.442-14.054,6.258-28.06,6.258-40.335c0-5.785-0.179-11.196-0.179-16.026c0-0.434,0.008-0.846,0.008-1.281l18.268,1.941 c-1.374,3.075-2.771,7.004-2.802,11.398c0,2.826,0.645,5.925,2.5,8.673c1.84,2.741,4.782,4.961,8.626,6.328 c1.654,0.605,3.315,0.916,4.938,0.916c2.112,0,4.107-0.528,5.8-1.398c3.004-1.553,5.132-3.99,6.817-6.53 c2.469-3.866,3.975-8.199,4.969-11.623c0.295-1.025,0.521-1.988,0.722-2.818l38.317-3.595 c-6.732,12.865-24.014,43.075-54.132,77.968c-28.58,33.076-59.318,51.43-82.937,61.554c-11.786,5.039-21.794,8.028-28.805,9.759 c-3.509,0.847-6.274,1.398-8.136,1.717c-0.932,0.178-1.638,0.271-2.089,0.349l-0.187,0.016c-2.826-0.381-18.656-2.888-40.342-12.33 c-23.456-10.202-53.689-28.511-81.804-61.066c-20.108-23.277-34.504-44.473-43.852-59.846c-4.643-7.64-8.052-13.836-10.287-18.122 L118.015,16.157z"/> </g> </g>
</svg>